#!OML:ASF H:\LiuWeirdWalks\Patient Classification 1\Patient 1\Session 1\male.ASF
:FULLY-SPECIFIED
:DEGREES
561
root 3.69187 19.0252 36.1311 -5.09919 6.22036 -15.6987
lowerback 12.547 -0.275496 8.89653
upperback 0.751653 1.32906 6.29312
thorax -6.23155 0.499152 1.44258
lowerneck -27.5479 -0.697295 3.75366
upperneck 24.6903 -1.48282 -3.61539
head 12.7361 -0.806107 -2.30094
rclavicle -6.95746e-016 7.65321e-014
rhumerus -52.4655 5.48372 -78.3185
rradius 37.5813
rwrist -5.16936
rhand -14.5508 2.37239
rfingers 7.12502
rthumb 11.598 -27.2867
lclavicle -6.95746e-016 7.65321e-014
lhumerus -44.9832 -5.68587 82.322
lradius 42.454
lwrist 3.0574
lhand -16.7209 -7.64245
lfingers 7.12502
lthumb 9.5046 22.1232
rfemur -6.2435 -15.4413 25.2352
rtibia 80.1706
rfoot -6.15286 -16.6789
rtoes -8.93028
lfemur -17.4959 -0.772078 -8.28338
ltibia 28.0849
lfoot 5.82153 4.27067
ltoes -8.78492
562
root 3.69954 18.9064 36.273 -5.11815 6.47254 -15.456
lowerback 12.2412 -0.307323 8.49649
upperback 0.782475 1.18416 6.27219
thorax -6.03819 0.445078 1.66411
lowerneck -27.3547 -0.694784 3.72979
upperneck 24.6112 -1.46231 -3.6154
head 12.6685 -0.799774 -2.28825
rclavicle 1.50579e-014 4.13472e-014
rhumerus -52.2763 5.87231 -78.6674
rradius 37.3643
rwrist -5.32209
rhand -14.3339 2.24193
rfingers 7.12502
rthumb 11.8071 -27.4052
lclavicle 1.50579e-014 4.13472e-014
lhumerus -45.1957 -5.49849 82.1282
lradius 42.4142
lwrist 3.10537
lhand -16.6737 -7.68996
lfingers 7.12502
lthumb 9.55016 22.0736
rfemur -6.00641 -15.3355 25.1338
rtibia 80.4424
rfoot -6.32448 -16.733
rtoes -8.91399
lfemur -18.313 -1.14437 -8.35264
ltibia 27.8434
lfoot 7.50806 3.41739
ltoes -8.95196
563
root 3.70936 18.7765 36.4141 -5.19496 6.63987 -15.1865
lowerback 11.9807 -0.323787 8.10209
upperback 0.839398 1.06594 6.24235
thorax -5.83976 0.403186 1.86765
lowerneck -27.1221 -0.686753 3.71145
upperneck 24.5061 -1.42823 -3.63822
head 12.5834 -0.790333 -2.28166
rclavicle -3.2551e-015 -3.37934e-015
rhumerus -52.0745 6.24458 -78.9924
rradius 37.1805
rwrist -5.44771
rhand -14.1553 2.13756
rfingers 7.12502
rthumb 11.9794 -27.4996
lclavicle -3.2551e-015 -3.37934e-015
lhumerus -45.393 -5.33682 81.9468
lradius 42.3819
lwrist 3.07921
lhand -16.6014 -7.73572
lfingers 7.12502
lthumb 9.61995 22.0246
rfemur -5.75785 -15.2008 24.9578
rtibia 80.8151
rfoot -6.55837 -16.7695
rtoes -8.89824
lfemur -18.8405 -1.26285 -8.48893
ltibia 27.9566
lfoot 8.7512 2.47918
ltoes -8.8785
564
root 3.72074 18.6376 36.5542 -5.32496 6.70884 -14.8488
lowerback 11.7824 -0.316905 7.66194
upperback 0.912516 0.980483 6.19743
thorax -5.65757 0.376994 2.07498
lowerneck -26.8536 -0.673939 3.68974
upperneck 24.3884 -1.37684 -3.6878
head 12.4872 -0.777301 -2.28095
rclavicle -2.2326e-014 2.76311e-014
rhumerus -51.8736 6.5907 -79.2786
rradius 37.0321
rwrist -5.50914
rhand -14.0088 2.08464
rfingers 7.12502
rthumb 12.1206 -27.5443
lclavicle -2.2326e-014 2.76311e-014
lhumerus -45.5967 -5.199 81.7827
lradius 42.3748
lwrist 2.99196
lhand -16.4761 -7.75397
lfingers 7.12502
lthumb 9.74086 22.0008
rfemur -5.50522 -15.0231 24.6649
rtibia 81.3055
rfoot -6.86004 -16.772
rtoes -8.92831
lfemur -19.0111 -0.920538 -8.78724
ltibia 28.5881
lfoot 8.92436 1.35306
ltoes -8.67111
565
root 3.72977 18.5 36.6933 -5.39389 6.68297 -14.1348
lowerback 11.6043 -0.244335 6.7965
upperback 0.9737 0.927772 6.07222
thorax -5.50263 0.373951 2.42869
lowerneck -26.5547 -0.643394 3.68472
upperneck 24.2547 -1.29377 -3.78039
head 12.3801 -0.754589 -2.29313
rclavicle -1.48716e-014 -8.20981e-014
rhumerus -51.6771 6.91785 -79.5324
rradius 36.9276
rwrist -5.52458
rhand -13.9289 2.06772
rfingers 7.12502
rthumb 12.1977 -27.5566
lclavicle -1.48716e-014 -8.20981e-014
lhumerus -45.819 -5.08872 81.6411
lradius 42.3956
lwrist 2.83446
lhand -16.3259 -7.78981
lfingers 7.12502
lthumb 9.88578 21.9581
rfemur -5.36421 -14.7813 23.9603
rtibia 81.9493
rfoot -7.2434 -16.7406
rtoes -8.94699
lfemur -19.0363 -0.374045 -9.52332
ltibia 29.5703
lfoot 8.00269 0.399211
ltoes -9.02172
566
root 3.73893 18.3317 36.8235 -5.43319 6.56776 -13.4225
lowerback 11.4658 -0.154003 5.97136
upperback 1.00684 0.914832 5.94445
thorax -5.39872 0.38696 2.7536
lowerneck -26.2662 -0.608708 3.66535
upperneck 24.1948 -1.1978 -3.87654
head 12.3051 -0.726961 -2.30409
rclavicle 2.11954e-014 -5.76476e-015
rhumerus -51.4744 7.18658 -79.733
rradius 36.8646
rwrist -5.44777
rhand -13.889 2.08765
rfingers 7.12502
rthumb 12.2361 -27.5344
lclavicle 2.11954e-014 -5.76476e-015
lhumerus -46.0599 -5.01457 81.5238
lradius 42.4517
lwrist 2.60719
lhand -16.1683 -7.83554
lfingers 7.12502
lthumb 10.0378 21.9051
rfemur -5.43606 -14.4958 23.2625
rtibia 82.8484
rfoot -7.70073 -16.717
rtoes -8.97474
lfemur -19.1117 0.264013 -10.2857
ltibia 30.8591
lfoot 6.1161 -0.244941
ltoes -9.9872
567
root 3.74299 18.1563 36.9485 -5.22387 6.40223 -12.229
lowerback 11.1991 0.00693832 4.58395
upperback 0.96628 0.91628 5.71218
thorax -5.3074 0.417037 3.28313
lowerneck -25.9857 -0.56949 3.60707
upperneck 24.2311 -1.09145 -3.93081
head 12.271 -0.691356 -2.29332
rclavicle 2.73329e-015 1.17283e-014
rhumerus -51.2625 7.43875 -79.9079
rradius 36.8258
rwrist -5.31492
rhand -13.9223 2.14525
rfingers 7.12502
rthumb 12.204 -27.4787
lclavicle 2.73329e-015 1.17283e-014
lhumerus -46.3156 -4.96148 81.4339
lradius 42.5263
lwrist 2.33241
lhand -16.0395 -7.89993
lfingers 7.12502
lthumb 10.162 21.8347
rfemur -5.9041 -14.1679 22.0894
rtibia 83.9672
rfoot -8.2259 -16.6506
rtoes -8.97119
lfemur -19.4883 0.836753 -11.5936
ltibia 32.28
lfoot 3.77693 -0.177663
ltoes -11.4049
568
root 3.75014 17.9768 37.0649 -4.88622 6.20404 -11.2207
lowerback 10.8906 0.139374 3.4469
upperback 0.847865 0.923619 5.51342
thorax -5.27259 0.444062 3.71147
lowerneck -25.7815 -0.527234 3.50876
upperneck 24.4156 -0.986238 -3.91532
head 12.3104 -0.649239 -2.25424
rclavicle -1.2834e-014 -3.69739e-014
rhumerus -51.031 7.65359 -80.062
rradius 36.7986
rwrist -5.13047
rhand -14.0424 2.23988
rfingers 7.12502
rthumb 12.0882 -27.3909
lclavicle -1.2834e-014 -3.69739e-014
lhumerus -46.5714 -4.93063 81.3688
lradius 42.6251
lwrist 2.06187
lhand -15.9839 -7.88575
lfingers 7.12502
lthumb 10.2157 21.8462
rfemur -6.6787 -13.8436 21.1827
rtibia 85.1636
rfoot -8.73414 -16.6345
rtoes -8.92342
lfemur -20.349 1.21568 -12.7341
ltibia 33.9251
lfoot 1.53255 0.572133
ltoes -12.2751
569
root 3.75838 17.8029 37.1732 -4.40755 6.06533 -10.5047
lowerback 10.5113 0.222338 2.68336
upperback 0.550951 0.925834 5.35121
thorax -5.38137 0.461516 3.97255
lowerneck -25.2836 -0.522918 3.35841
upperneck 24.6821 -0.937446 -3.78725
head 12.3238 -0.619311 -2.17104
rclavicle -1.12189e-014 -3.1408e-014
rhumerus -50.9794 7.68778 -80.1766
rradius 36.775
rwrist -4.81112
rhand -14.2548 2.37624
rfingers 7.12502
rthumb 11.8834 -27.2665
lclavicle -1.12189e-014 -3.1408e-014
lhumerus -46.9859 -5.02706 81.3337
lradius 42.7232
lwrist 1.80025
lhand -16.0214 -7.8227
lfingers 7.12502
lthumb 10.1795 21.911
rfemur -7.74669 -13.5931 20.6927
rtibia 86.3195
rfoot -9.20236 -16.7085
rtoes -8.86093
lfemur -21.6997 1.33892 -13.594
ltibia 35.7454
lfoot -0.305138 1.75519
ltoes -12.1102
570
root 3.76409 17.6421 37.2737 -3.79584 6.10064 -10.0517
lowerback 10.0993 0.228333 2.22921
upperback 0.183842 0.870219 5.22294
thorax -5.53812 0.445435 4.10458
lowerneck -24.9879 -0.527175 3.20055
upperneck 25.075 -0.92296 -3.59691
head 12.4249 -0.596818 -2.07433
rclavicle 1.71452e-014 2.54444e-014
rhumerus -50.8177 7.48957 -80.2183
rradius 36.6769
rwrist -4.39769
rhand -14.5733 2.5385
rfingers 7.12502
rthumb 11.5763 -27.1218
lclavicle 1.71452e-014 2.54444e-014
lhumerus -47.2636 -5.18237 81.2891
lradius 42.7367
lwrist 1.58487
lhand -16.1827 -7.73784
lfingers 7.12502
lthumb 10.0239 22.0035
rfemur -9.06702 -13.4975 20.5993
rtibia 87.3466
rfoot -9.62907 -16.8767
rtoes -8.8698
lfemur -23.58 1.14421 -14.1818
ltibia 37.8652
lfoot -1.58136 3.06898
ltoes -10.9896
571
root 3.7643 17.4962 37.3656 -3.11608 6.33529 -9.73132
lowerback 9.72457 0.166758 1.92547
upperback -0.245647 0.749485 5.09571
thorax -5.77478 0.395161 4.16333
lowerneck -24.7511 -0.530985 3.0994
upperneck 25.4664 -0.929412 -3.42106
head 12.536 -0.580507 -1.99666
rclavicle -3.6713e-015 -7.35503e-015
rhumerus -50.5827 7.00801 -80.1686
rradius 36.4784
rwrist -3.91151
rhand -15.0172 2.72039
rfingers 7.12502
rthumb 11.1482 -26.9635
lclavicle -3.6713e-015 -7.35503e-015
lhumerus -47.4143 -5.37705 81.2125
lradius 42.5878
lwrist 1.4176
lhand -16.4848 -7.76506
lfingers 7.12502
lthumb 9.73244 21.9901
rfemur -10.5365 -13.5666 20.7507
rtibia 88.2207
rfoot -10.0623 -17.1388
rtoes -8.85083
lfemur -25.6995 0.723746 -14.6206
ltibia 40.2172
lfoot -2.57036 4.29872
ltoes -9.55985
572
root 3.76168 17.3602 37.4483 -2.60438 6.70172 -9.55704
lowerback 9.59545 0.0493932 1.81692
upperback -0.630413 0.587693 4.97975
thorax -6.09833 0.320043 4.13107
lowerneck -24.6239 -0.527765 3.06692
upperneck 25.788 -0.938937 -3.3083
head 12.6403 -0.568668 -1.9549
rclavicle -1.85118e-015 2.38542e-015
rhumerus -50.2088 6.26628 -80.011
rradius 36.1548
rwrist -3.39583
rhand -15.5827 2.87403
rfingers 7.12502
rthumb 10.6027 -26.8385
lclavicle -1.85118e-015 2.38542e-015
lhumerus -47.3535 -5.51486 81.0669
lradius 42.1967
lwrist 1.18495
lhand -16.8549 -7.95634
lfingers 7.12502
lthumb 9.37532 21.8152
rfemur -11.8683 -13.7299 21.0855
rtibia 88.9144
rfoot -10.5434 -17.4668
rtoes -8.86939
lfemur -27.5156 0.265572 -14.9105
ltibia 42.6986
lfoot -3.6377 5.28844
ltoes -8.56663
573
root 3.75678 17.2348 37.5226 -2.28913 7.06736 -9.28643
lowerback 9.72154 -0.0688584 1.62482
upperback -0.912639 0.418949 4.83653
thorax -6.45879 0.244032 4.12045
lowerneck -24.6381 -0.501873 3.10215
upperneck 26.0001 -0.920557 -3.28712
head 12.7291 -0.552108 -1.95424
rclavicle 9.94545e-015 -7.2954e-014
rhumerus -49.6702 5.32945 -79.7458
rradius 35.7155
rwrist -2.90057
rhand -16.2821 2.94547
rfingers 7.12502
rthumb 9.92799 -26.8004
lclavicle 9.94545e-015 -7.2954e-014
lhumerus -47.0462 -5.47736 80.8329
lradius 41.5177
lwrist 0.856063
lhand -17.2726 -8.38953
lfingers 7.12502
lthumb 8.97232 21.3997
rfemur -13.0192 -13.8684 21.3092
rtibia 89.4478
rfoot -11.0632 -17.8114
rtoes -8.88794
lfemur -28.9905 -0.195652 -15.2702
ltibia 45.0999
lfoot -4.71015 6.08822
ltoes -7.90175
574
root 3.75591 17.1194 37.5905 -2.28591 7.2872 -9.06441
lowerback 10.1213 -0.159446 1.54922
upperback -1.03902 0.304922 4.70819
thorax -6.81316 0.190812 4.05338
lowerneck -24.7532 -0.450619 3.1803
upperneck 26.132 -0.866093 -3.33342
head 12.8068 -0.525952 -1.98007
rclavicle 1.19644e-014 -1.05356e-014
rhumerus -49.0067 4.25108 -79.381
rradius 35.2096
rwrist -2.46187
rhand -17.0844 2.89508
rfingers 7.12502
rthumb 9.1539 -26.8863
lclavicle 1.19644e-014 -1.05356e-014
lhumerus -46.5194 -5.20363 80.5162
lradius 40.5758
lwrist 0.409828
lhand -17.6661 -8.91663
lfingers 7.12502
lthumb 8.59253 20.8885
rfemur -13.8445 -13.8507 21.5423
rtibia 89.779
rfoot -11.5682 -18.1741
rtoes -8.92708
lfemur -29.9537 -0.578528 -15.5386
ltibia 47.2706
lfoot -5.83149 6.75934
ltoes -7.43839
